<svg version="1.1" xmlns="http://www.w3.org/2000/svg" xmlns:xlink="http://www.w3.org/1999/xlink" viewBox="140,60,460,460"><defs><clipPath id="clip-1"><rect x="0" y="0" width="960" height="720" fill="none" fill-rule="nonzero" stroke="none" stroke-width="1" stroke-linecap="butt" stroke-linejoin="miter"/></clipPath><clipPath id="clip-2"><path d="M0,0c256,-192 704,-192 960,0c192,144 192,576 0,720c-1200,900 -1152,-576 -960,-720z" id="p.0 1 1 1" fill="none" fill-rule="nonzero" stroke="none" stroke-width="1" stroke-linecap="square" stroke-linejoin="miter"/></clipPath>    <linearGradient id="auroraGradient" x1="0%" y1="0%" x2="100%" y2="100%">
      <stop offset="0%" stop-color="#01B180"/>
      <stop offset="32%" stop-color="#015B81"/>
      <stop offset="75%" stop-color="#714EC1"/>
  <stop offset="93%" stop-color="#DA7693"/>
  <stop offset="99%" stop-color="#f78b40"/>
    </linearGradient></defs><g fill="none" fill-rule="none" stroke="none" stroke-width="none" stroke-linecap="none" stroke-linejoin="none" stroke-miterlimit="10" stroke-dasharray="" stroke-dashoffset="0" font-family="none" font-weight="none" font-size="none" text-anchor="none" style="mix-blend-mode: normal"><g clip-path="url(#clip-1)"><g clip-path="url(#clip-2)"><path d="M203.30074,235.47037c-2.43064,3.4432 -5.49768,6.78332 -6.41208,10.89763c-4.28014,19.25842 22.55212,41.73971 39.10236,44.87138c12.77436,2.41719 23.24277,-16.50363 31.41208,-23.07874c25.20812,-20.28885 48.34332,-12.92353 74.35696,-25.64041c9.01084,-4.40499 29.91503,-32.17757 29.48819,-12.17848c-1.2795,59.94914 -75.6438,89.53388 -102.5643,135.89763c-18.58605,32.00978 -3.49928,69.44679 -18.68243,95.38846c-4.90876,8.38702 -52.43984,33.2975 -27.89763,44.84512c5.6993,1.28088 14.51918,1.13131 21.79527,1.28088c43.7939,0 87.6063,0 131.40946,0c33.33333,0 66.66772,0 100,0c10.04255,-0.07995 21.07989,0 30.1286,0c24.7002,-11.89222 -21.01784,-36.42548 -27.5643,-44.8714c-15.06701,-19.43869 -11.86028,-50.77566 -8.97375,-73.07611c3.90748,-30.18811 17.22106,-56.93785 24.3281,-86.25723c17.28452,-71.30563 4.87729,-153.85563 -63.61682,-193.37008c-34.87586,-20.11998 -49.81886,-12.39057 -83.33331,-19.23097c-5.22334,-1.0661 -47.82553,-15.56466 -61.53806,-12.82152c-2.13724,0.42755 -2.07498,4.38231 -1.28085,6.41207c5.31092,13.57453 22.00461,14.51232 15.38321,36.33334c-8.83381,25.10969 -36.43532,50.75133 -53.84515,69.87139z" fill="none" fill-rule="evenodd" stroke="url(#auroraGradient)" stroke-width="24" stroke-linecap="butt" stroke-linejoin="round"/></g></g></g></svg>