<svg width="305.3" height="75.001" viewBox="0 0 305.3 75.001" xmlns="http://www.w3.org/2000/svg"><defs><linearGradient id="auroraGradient" x1="0%" y1="0%" x2="100%" y2="100%">
      <stop offset="0%" stop-color="#028D66"/>
      <stop offset="32%" stop-color="#015B81"/>
      <stop offset="75%" stop-color="#714EC1"/>
  <stop offset="93%" stop-color="#C75576"/>
  <stop offset="99%" stop-color="#DA6E24"/>
  <style>
  text-shadow: white 0px 0px 10px;</style>
    </linearGradient></defs><g id="svgGroup" stroke-linecap="round" fill-rule="evenodd" font-size="9pt" stroke="#000" stroke-width="0.5mm" fill="#000" style="stroke:#000;stroke-width:0.0mm;fill:url(#auroraGradient)"><path d="M 73.4 49.5 L 73.4 18.9 L 80.2 18.9 L 80.2 48.3 A 41.775 41.775 0 0 0 80.441 52.95 Q 81.008 57.997 82.909 61.078 A 11.682 11.682 0 0 0 83.25 61.6 A 9.89 9.89 0 0 0 90.497 65.893 A 14.636 14.636 0 0 0 92.3 66 Q 96.3 66 100.05 64.25 Q 103.8 62.5 106.7 59.25 Q 109.6 56 111.1 51.7 L 111.1 18.9 L 117.9 18.9 L 117.9 62.8 A 5.197 5.197 0 0 0 117.947 63.528 Q 118.001 63.902 118.113 64.202 A 1.954 1.954 0 0 0 118.5 64.85 A 2.123 2.123 0 0 0 119.293 65.38 Q 119.606 65.504 119.989 65.563 A 4.425 4.425 0 0 0 120.3 65.6 L 120.3 71 Q 119.381 71.077 118.756 71.124 A 87.907 87.907 0 0 1 118.4 71.15 A 20.299 20.299 0 0 1 117.644 71.19 A 16.037 16.037 0 0 1 117.1 71.2 Q 115.1 71 113.65 69.6 Q 112.2 68.2 112.1 66.2 L 111.9 59.2 Q 108.5 65.2 102.65 68.6 Q 96.8 72 90 72 A 18.696 18.696 0 0 1 84.862 71.334 A 13.318 13.318 0 0 1 77.6 66.3 A 18.576 18.576 0 0 1 74.96 61.023 Q 74.131 58.495 73.743 55.401 A 47.497 47.497 0 0 1 73.4 49.5 Z M 0 71 L 29.7 0 L 35.6 0 L 65.1 71 L 57.7 71 L 48.5 48.8 L 16.6 48.8 L 7.5 71 L 0 71 Z M 296 42.5 L 296 38.1 Q 296 31.5 292.1 27.6 Q 288.244 23.744 281.455 23.7 A 24.24 24.24 0 0 0 281.3 23.7 Q 277.1 23.7 273.05 25.25 Q 269.032 26.788 264.669 29.753 A 56.526 56.526 0 0 0 264.6 29.8 L 262 25 Q 267.1 21.5 272 19.75 Q 276.9 18 282 18 A 27.094 27.094 0 0 1 288.383 18.71 A 18.532 18.532 0 0 1 297.2 23.5 A 18.108 18.108 0 0 1 302.138 32.528 A 27.164 27.164 0 0 1 302.8 38.7 L 302.8 62.8 A 5.197 5.197 0 0 0 302.847 63.528 Q 302.901 63.902 303.013 64.202 A 1.954 1.954 0 0 0 303.4 64.85 A 2.022 2.022 0 0 0 304.087 65.326 Q 304.589 65.545 305.3 65.6 L 305.3 71 Q 304.2 71.1 303.4 71.2 A 7.511 7.511 0 0 1 303.114 71.23 Q 302.525 71.281 302.2 71.2 A 6.937 6.937 0 0 1 300.656 70.975 Q 299.263 70.596 298.4 69.6 A 6.278 6.278 0 0 1 297.498 68.262 A 4.828 4.828 0 0 1 297 66.4 L 296.9 62.6 A 22.655 22.655 0 0 1 288.832 69.073 A 26.803 26.803 0 0 1 287.8 69.55 Q 282.2 72 276.4 72 A 20.052 20.052 0 0 1 270.521 71.16 A 17.854 17.854 0 0 1 267.35 69.85 A 16.664 16.664 0 0 1 262.72 66.284 A 15.473 15.473 0 0 1 261.05 64.05 Q 258.8 60.4 258.8 56 Q 258.8 51.1 261.6 47.55 A 16.525 16.525 0 0 1 266.201 43.58 A 21.83 21.83 0 0 1 269.35 42.05 A 27.212 27.212 0 0 1 275.318 40.487 A 37.093 37.093 0 0 1 280.8 40.1 A 52.824 52.824 0 0 1 286.669 40.437 A 60.295 60.295 0 0 1 288.7 40.7 Q 292.8 41.3 296 42.5 Z M 182.833 70.84 A 25.531 25.531 0 0 0 190.6 72 A 28.997 28.997 0 0 0 192.531 71.936 A 24.425 24.425 0 0 0 201.05 69.85 Q 205.8 67.7 209.25 63.95 Q 212.7 60.2 214.6 55.35 Q 216.5 50.5 216.5 45.1 A 32.31 32.31 0 0 0 216.477 43.884 A 28.02 28.02 0 0 0 214.6 34.65 Q 212.7 29.8 209.2 26.05 Q 205.7 22.3 201 20.15 A 22.975 22.975 0 0 0 197.975 19.016 A 25.447 25.447 0 0 0 190.7 18 A 28.546 28.546 0 0 0 189.614 18.021 A 24.504 24.504 0 0 0 180.35 20.15 Q 175.6 22.3 172.1 26.05 Q 168.6 29.8 166.7 34.65 A 26.673 26.673 0 0 0 165.914 36.965 A 29.122 29.122 0 0 0 164.8 45.1 Q 164.8 50.5 166.7 55.35 Q 168.6 60.2 172.05 63.95 Q 175.5 67.7 180.25 69.85 A 23.486 23.486 0 0 0 182.833 70.84 Z M 159.3 18.7 L 159.3 24.9 A 22.843 22.843 0 0 0 151.989 26.268 A 20.489 20.489 0 0 0 147.35 28.7 A 19.004 19.004 0 0 0 140.2 38.306 A 23.338 23.338 0 0 0 140.1 38.6 L 140.1 71 L 133.3 71 L 133.3 18.9 L 139.7 18.9 L 139.7 31.4 A 26.046 26.046 0 0 1 143.759 25.345 A 23.036 23.036 0 0 1 146.85 22.5 A 19.536 19.536 0 0 1 151.585 19.791 A 16.47 16.47 0 0 1 156.3 18.7 A 23.329 23.329 0 0 1 157.015 18.639 Q 157.369 18.615 157.685 18.605 A 12.621 12.621 0 0 1 158.05 18.6 A 9.31 9.31 0 0 1 158.567 18.613 Q 158.984 18.637 159.3 18.7 Z M 253.9 18.7 L 253.9 24.9 A 22.843 22.843 0 0 0 246.589 26.268 A 20.489 20.489 0 0 0 241.95 28.7 A 19.004 19.004 0 0 0 234.8 38.306 A 23.338 23.338 0 0 0 234.7 38.6 L 234.7 71 L 227.9 71 L 227.9 18.9 L 234.3 18.9 L 234.3 31.4 A 26.046 26.046 0 0 1 238.359 25.345 A 23.036 23.036 0 0 1 241.45 22.5 A 19.536 19.536 0 0 1 246.185 19.791 A 16.47 16.47 0 0 1 250.9 18.7 A 23.329 23.329 0 0 1 251.615 18.639 Q 251.969 18.615 252.285 18.605 A 12.621 12.621 0 0 1 252.65 18.6 A 9.31 9.31 0 0 1 253.167 18.613 Q 253.584 18.637 253.9 18.7 Z M 171.7 45.2 A 22.816 22.816 0 0 0 172.851 52.52 A 20.907 20.907 0 0 0 174.25 55.75 A 20.2 20.2 0 0 0 179.302 61.951 A 19.437 19.437 0 0 0 181.1 63.25 Q 185.4 66 190.6 66 Q 195.8 66 200.1 63.2 A 20.211 20.211 0 0 0 206.498 56.441 A 23.946 23.946 0 0 0 207 55.55 Q 209.6 50.7 209.6 45 A 22.405 22.405 0 0 0 208.153 36.902 A 21.194 21.194 0 0 0 207 34.4 A 21.082 21.082 0 0 0 202.264 28.429 A 19.866 19.866 0 0 0 200.1 26.8 Q 195.8 24 190.6 24 Q 185.4 24 181.15 26.9 A 21.703 21.703 0 0 0 174.31 34.531 A 24.651 24.651 0 0 0 174.3 34.55 A 21.357 21.357 0 0 0 171.751 43.563 A 25.735 25.735 0 0 0 171.7 45.2 Z M 18.1 43.3 L 46.9 43.3 L 32.6 8.2 L 18.1 43.3 Z M 296 55 L 296 47.4 Q 292.6 46.1 288.95 45.4 Q 285.3 44.7 281.6 44.7 Q 274.3 44.7 269.8 47.6 Q 265.3 50.5 265.3 55.5 Q 265.3 58.4 266.8 60.95 Q 268.3 63.5 271.2 65.15 A 12.495 12.495 0 0 0 275.548 66.622 A 16.351 16.351 0 0 0 278 66.8 Q 282.9 66.8 287.15 64.9 A 20.14 20.14 0 0 0 290.469 63.046 A 14.449 14.449 0 0 0 293.7 60 Q 294.763 58.646 295.36 57.386 A 10.056 10.056 0 0 0 295.4 57.3 A 8.085 8.085 0 0 0 295.742 56.442 Q 296 55.656 296 55 Z"/></g></svg>